<?xml version="1.0" encoding="UTF-8" standalone="no"?>
<!DOCTYPE svg PUBLIC "-//W3C//DTD SVG 1.1//EN"  "http://www.w3.org/Graphics/SVG/1.1/DTD/svg11.dtd">
<svg version="1.1"
     baseProfile="full"
     xmlns="http://www.w3.org/2000/svg"
     xmlns:xlink="http://www.w3.org/1999/xlink"
     xmlns:ev="http://www.w3.org/2001/xml-events"
     width="100%" height="100%">
      <text font-size="20" x="0" y="50">
          server # 0
        </text><rect width="35" x="127" style="fill:rgb(200,200,200)" y="30" height="30"></rect><line y1="20" x1="127" style="stroke:rgb(0,0,0);stroke-width:2" x2="127" y2="70"></line><line y1="20" x1="162" style="stroke:rgb(0,0,0);stroke-width:2" x2="162" y2="70"></line><rect width="44" x="231" style="fill:rgb(100,100,100)" y="30" height="30"></rect><line y1="20" x1="231" style="stroke:rgb(0,0,0);stroke-width:2" x2="231" y2="70"></line><line y1="20" x1="275" style="stroke:rgb(0,0,0);stroke-width:2" x2="275" y2="70"></line><rect width="48" x="275" style="fill:rgb(200,200,200)" y="30" height="30"></rect><line y1="20" x1="275" style="stroke:rgb(0,0,0);stroke-width:2" x2="275" y2="70"></line><line y1="20" x1="323" style="stroke:rgb(0,0,0);stroke-width:2" x2="323" y2="70"></line><rect width="44" x="335" style="fill:rgb(100,100,100)" y="30" height="30"></rect><line y1="20" x1="335" style="stroke:rgb(0,0,0);stroke-width:2" x2="335" y2="70"></line><line y1="20" x1="379" style="stroke:rgb(0,0,0);stroke-width:2" x2="379" y2="70"></line><rect width="57" x="396" style="fill:rgb(200,200,200)" y="30" height="30"></rect><line y1="20" x1="396" style="stroke:rgb(0,0,0);stroke-width:2" x2="396" y2="70"></line><line y1="20" x1="453" style="stroke:rgb(0,0,0);stroke-width:2" x2="453" y2="70"></line><rect width="72" x="494" style="fill:rgb(100,100,100)" y="30" height="30"></rect><line y1="20" x1="494" style="stroke:rgb(0,0,0);stroke-width:2" x2="494" y2="70"></line><line y1="20" x1="566" style="stroke:rgb(0,0,0);stroke-width:2" x2="566" y2="70"></line><rect width="59" x="566" style="fill:rgb(200,200,200)" y="30" height="30"></rect><line y1="20" x1="566" style="stroke:rgb(0,0,0);stroke-width:2" x2="566" y2="70"></line><line y1="20" x1="625" style="stroke:rgb(0,0,0);stroke-width:2" x2="625" y2="70"></line><rect width="52" x="625" style="fill:rgb(100,100,100)" y="30" height="30"></rect><line y1="20" x1="625" style="stroke:rgb(0,0,0);stroke-width:2" x2="625" y2="70"></line><line y1="20" x1="677" style="stroke:rgb(0,0,0);stroke-width:2" x2="677" y2="70"></line><rect width="33" x="677" style="fill:rgb(200,200,200)" y="30" height="30"></rect><line y1="20" x1="677" style="stroke:rgb(0,0,0);stroke-width:2" x2="677" y2="70"></line><line y1="20" x1="710" style="stroke:rgb(0,0,0);stroke-width:2" x2="710" y2="70"></line><text font-size="20" x="0" y="110">
          server # 1
        </text><rect width="88" x="171" style="fill:rgb(200,200,200)" y="90" height="30"></rect><line y1="80" x1="171" style="stroke:rgb(0,0,0);stroke-width:2" x2="171" y2="130"></line><line y1="80" x1="259" style="stroke:rgb(0,0,0);stroke-width:2" x2="259" y2="130"></line><rect width="22" x="259" style="fill:rgb(100,100,100)" y="90" height="30"></rect><line y1="80" x1="259" style="stroke:rgb(0,0,0);stroke-width:2" x2="259" y2="130"></line><line y1="80" x1="281" style="stroke:rgb(0,0,0);stroke-width:2" x2="281" y2="130"></line><rect width="49" x="308" style="fill:rgb(200,200,200)" y="90" height="30"></rect><line y1="80" x1="308" style="stroke:rgb(0,0,0);stroke-width:2" x2="308" y2="130"></line><line y1="80" x1="357" style="stroke:rgb(0,0,0);stroke-width:2" x2="357" y2="130"></line><rect width="45" x="357" style="fill:rgb(100,100,100)" y="90" height="30"></rect><line y1="80" x1="357" style="stroke:rgb(0,0,0);stroke-width:2" x2="357" y2="130"></line><line y1="80" x1="402" style="stroke:rgb(0,0,0);stroke-width:2" x2="402" y2="130"></line><rect width="82" x="427" style="fill:rgb(200,200,200)" y="90" height="30"></rect><line y1="80" x1="427" style="stroke:rgb(0,0,0);stroke-width:2" x2="427" y2="130"></line><line y1="80" x1="509" style="stroke:rgb(0,0,0);stroke-width:2" x2="509" y2="130"></line><rect width="60" x="509" style="fill:rgb(100,100,100)" y="90" height="30"></rect><line y1="80" x1="509" style="stroke:rgb(0,0,0);stroke-width:2" x2="509" y2="130"></line><line y1="80" x1="569" style="stroke:rgb(0,0,0);stroke-width:2" x2="569" y2="130"></line><rect width="82" x="569" style="fill:rgb(200,200,200)" y="90" height="30"></rect><line y1="80" x1="569" style="stroke:rgb(0,0,0);stroke-width:2" x2="569" y2="130"></line><line y1="80" x1="651" style="stroke:rgb(0,0,0);stroke-width:2" x2="651" y2="130"></line><rect width="34" x="651" style="fill:rgb(100,100,100)" y="90" height="30"></rect><line y1="80" x1="651" style="stroke:rgb(0,0,0);stroke-width:2" x2="651" y2="130"></line><line y1="80" x1="685" style="stroke:rgb(0,0,0);stroke-width:2" x2="685" y2="130"></line><text font-size="20" x="0" y="170">
          server # 2
        </text><rect width="54" x="193" style="fill:rgb(200,200,200)" y="150" height="30"></rect><line y1="140" x1="193" style="stroke:rgb(0,0,0);stroke-width:2" x2="193" y2="190"></line><line y1="140" x1="247" style="stroke:rgb(0,0,0);stroke-width:2" x2="247" y2="190"></line><rect width="49" x="247" style="fill:rgb(100,100,100)" y="150" height="30"></rect><line y1="140" x1="247" style="stroke:rgb(0,0,0);stroke-width:2" x2="247" y2="190"></line><line y1="140" x1="296" style="stroke:rgb(0,0,0);stroke-width:2" x2="296" y2="190"></line><rect width="16" x="322" style="fill:rgb(200,200,200)" y="150" height="30"></rect><line y1="140" x1="322" style="stroke:rgb(0,0,0);stroke-width:2" x2="322" y2="190"></line><line y1="140" x1="338" style="stroke:rgb(0,0,0);stroke-width:2" x2="338" y2="190"></line><rect width="71" x="394" style="fill:rgb(100,100,100)" y="150" height="30"></rect><line y1="140" x1="394" style="stroke:rgb(0,0,0);stroke-width:2" x2="394" y2="190"></line><line y1="140" x1="465" style="stroke:rgb(0,0,0);stroke-width:2" x2="465" y2="190"></line><rect width="40" x="465" style="fill:rgb(200,200,200)" y="150" height="30"></rect><line y1="140" x1="465" style="stroke:rgb(0,0,0);stroke-width:2" x2="465" y2="190"></line><line y1="140" x1="505" style="stroke:rgb(0,0,0);stroke-width:2" x2="505" y2="190"></line><rect width="32" x="530" style="fill:rgb(100,100,100)" y="150" height="30"></rect><line y1="140" x1="530" style="stroke:rgb(0,0,0);stroke-width:2" x2="530" y2="190"></line><line y1="140" x1="562" style="stroke:rgb(0,0,0);stroke-width:2" x2="562" y2="190"></line><rect width="35" x="562" style="fill:rgb(200,200,200)" y="150" height="30"></rect><line y1="140" x1="562" style="stroke:rgb(0,0,0);stroke-width:2" x2="562" y2="190"></line><line y1="140" x1="597" style="stroke:rgb(0,0,0);stroke-width:2" x2="597" y2="190"></line><rect width="26" x="597" style="fill:rgb(100,100,100)" y="150" height="30"></rect><line y1="140" x1="597" style="stroke:rgb(0,0,0);stroke-width:2" x2="597" y2="190"></line><line y1="140" x1="623" style="stroke:rgb(0,0,0);stroke-width:2" x2="623" y2="190"></line>
</svg>