<?xml version="1.0" encoding="UTF-8" standalone="no"?>
<!DOCTYPE svg PUBLIC "-//W3C//DTD SVG 1.1//EN"  "http://www.w3.org/Graphics/SVG/1.1/DTD/svg11.dtd">
<svg version="1.1"
     baseProfile="full"
     xmlns="http://www.w3.org/2000/svg"
     xmlns:xlink="http://www.w3.org/1999/xlink"
     xmlns:ev="http://www.w3.org/2001/xml-events"
     width="100%" height="100%">
      <text font-size="20" x="55" text-anchor="middle" y="50">
          server # 0
        </text><rect width="32" x="126" style="fill:rgb(200,200,200)" y="30" height="30"></rect><line y1="20" x1="126" style="stroke:rgb(0,0,0);stroke-width:2" x2="126" y2="70"></line><line y1="20" x1="158" style="stroke:rgb(0,0,0);stroke-width:2" x2="158" y2="70"></line><text font-size="20" x="144" text-anchor="middle" y="50">
          0
        </text><rect width="41" x="222" style="fill:rgb(100,100,100)" y="30" height="30"></rect><line y1="20" x1="222" style="stroke:rgb(0,0,0);stroke-width:2" x2="222" y2="70"></line><line y1="20" x1="263" style="stroke:rgb(0,0,0);stroke-width:2" x2="263" y2="70"></line><text font-size="20" x="244" text-anchor="middle" y="50">
          3
        </text><rect width="43" x="263" style="fill:rgb(200,200,200)" y="30" height="30"></rect><line y1="20" x1="263" style="stroke:rgb(0,0,0);stroke-width:2" x2="263" y2="70"></line><line y1="20" x1="306" style="stroke:rgb(0,0,0);stroke-width:2" x2="306" y2="70"></line><text font-size="20" x="286" text-anchor="middle" y="50">
          6
        </text><rect width="41" x="318" style="fill:rgb(100,100,100)" y="30" height="30"></rect><line y1="20" x1="318" style="stroke:rgb(0,0,0);stroke-width:2" x2="318" y2="70"></line><line y1="20" x1="359" style="stroke:rgb(0,0,0);stroke-width:2" x2="359" y2="70"></line><text font-size="20" x="340" text-anchor="middle" y="50">
          9
        </text><rect width="53" x="374" style="fill:rgb(200,200,200)" y="30" height="30"></rect><line y1="20" x1="374" style="stroke:rgb(0,0,0);stroke-width:2" x2="374" y2="70"></line><line y1="20" x1="427" style="stroke:rgb(0,0,0);stroke-width:2" x2="427" y2="70"></line><text font-size="20" x="402" text-anchor="middle" y="50">
          12
        </text><rect width="67" x="465" style="fill:rgb(100,100,100)" y="30" height="30"></rect><line y1="20" x1="465" style="stroke:rgb(0,0,0);stroke-width:2" x2="465" y2="70"></line><line y1="20" x1="532" style="stroke:rgb(0,0,0);stroke-width:2" x2="532" y2="70"></line><text font-size="20" x="500" text-anchor="middle" y="50">
          15
        </text><rect width="54" x="532" style="fill:rgb(200,200,200)" y="30" height="30"></rect><line y1="20" x1="532" style="stroke:rgb(0,0,0);stroke-width:2" x2="532" y2="70"></line><line y1="20" x1="586" style="stroke:rgb(0,0,0);stroke-width:2" x2="586" y2="70"></line><text font-size="20" x="561" text-anchor="middle" y="50">
          18
        </text><rect width="48" x="586" style="fill:rgb(100,100,100)" y="30" height="30"></rect><line y1="20" x1="586" style="stroke:rgb(0,0,0);stroke-width:2" x2="586" y2="70"></line><line y1="20" x1="634" style="stroke:rgb(0,0,0);stroke-width:2" x2="634" y2="70"></line><text font-size="20" x="612" text-anchor="middle" y="50">
          21
        </text><rect width="30" x="634" style="fill:rgb(200,200,200)" y="30" height="30"></rect><line y1="20" x1="634" style="stroke:rgb(0,0,0);stroke-width:2" x2="634" y2="70"></line><line y1="20" x1="664" style="stroke:rgb(0,0,0);stroke-width:2" x2="664" y2="70"></line><text font-size="20" x="651" text-anchor="middle" y="50">
          24
        </text><text font-size="20" x="55" text-anchor="middle" y="110">
          server # 1
        </text><rect width="82" x="166" style="fill:rgb(200,200,200)" y="90" height="30"></rect><line y1="80" x1="166" style="stroke:rgb(0,0,0);stroke-width:2" x2="166" y2="130"></line><line y1="80" x1="248" style="stroke:rgb(0,0,0);stroke-width:2" x2="248" y2="130"></line><text font-size="20" x="209" text-anchor="middle" y="110">
          1
        </text><rect width="20" x="248" style="fill:rgb(100,100,100)" y="90" height="30"></rect><line y1="80" x1="248" style="stroke:rgb(0,0,0);stroke-width:2" x2="248" y2="130"></line><line y1="80" x1="268" style="stroke:rgb(0,0,0);stroke-width:2" x2="268" y2="130"></line><text font-size="20" x="260" text-anchor="middle" y="110">
          4
        </text><rect width="45" x="293" style="fill:rgb(200,200,200)" y="90" height="30"></rect><line y1="80" x1="293" style="stroke:rgb(0,0,0);stroke-width:2" x2="293" y2="130"></line><line y1="80" x1="338" style="stroke:rgb(0,0,0);stroke-width:2" x2="338" y2="130"></line><text font-size="20" x="317" text-anchor="middle" y="110">
          7
        </text><rect width="42" x="338" style="fill:rgb(100,100,100)" y="90" height="30"></rect><line y1="80" x1="338" style="stroke:rgb(0,0,0);stroke-width:2" x2="338" y2="130"></line><line y1="80" x1="380" style="stroke:rgb(0,0,0);stroke-width:2" x2="380" y2="130"></line><text font-size="20" x="361" text-anchor="middle" y="110">
          10
        </text><rect width="76" x="403" style="fill:rgb(200,200,200)" y="90" height="30"></rect><line y1="80" x1="403" style="stroke:rgb(0,0,0);stroke-width:2" x2="403" y2="130"></line><line y1="80" x1="479" style="stroke:rgb(0,0,0);stroke-width:2" x2="479" y2="130"></line><text font-size="20" x="443" text-anchor="middle" y="110">
          13
        </text><rect width="56" x="479" style="fill:rgb(100,100,100)" y="90" height="30"></rect><line y1="80" x1="479" style="stroke:rgb(0,0,0);stroke-width:2" x2="479" y2="130"></line><line y1="80" x1="535" style="stroke:rgb(0,0,0);stroke-width:2" x2="535" y2="130"></line><text font-size="20" x="509" text-anchor="middle" y="110">
          16
        </text><rect width="75" x="535" style="fill:rgb(200,200,200)" y="90" height="30"></rect><line y1="80" x1="535" style="stroke:rgb(0,0,0);stroke-width:2" x2="535" y2="130"></line><line y1="80" x1="610" style="stroke:rgb(0,0,0);stroke-width:2" x2="610" y2="130"></line><text font-size="20" x="574" text-anchor="middle" y="110">
          19
        </text><rect width="32" x="610" style="fill:rgb(100,100,100)" y="90" height="30"></rect><line y1="80" x1="610" style="stroke:rgb(0,0,0);stroke-width:2" x2="610" y2="130"></line><line y1="80" x1="642" style="stroke:rgb(0,0,0);stroke-width:2" x2="642" y2="130"></line><text font-size="20" x="628" text-anchor="middle" y="110">
          22
        </text><text font-size="20" x="55" text-anchor="middle" y="170">
          server # 2
        </text><rect width="50" x="187" style="fill:rgb(200,200,200)" y="150" height="30"></rect><line y1="140" x1="187" style="stroke:rgb(0,0,0);stroke-width:2" x2="187" y2="190"></line><line y1="140" x1="237" style="stroke:rgb(0,0,0);stroke-width:2" x2="237" y2="190"></line><text font-size="20" x="214" text-anchor="middle" y="170">
          2
        </text><rect width="45" x="237" style="fill:rgb(100,100,100)" y="150" height="30"></rect><line y1="140" x1="237" style="stroke:rgb(0,0,0);stroke-width:2" x2="237" y2="190"></line><line y1="140" x1="282" style="stroke:rgb(0,0,0);stroke-width:2" x2="282" y2="190"></line><text font-size="20" x="261" text-anchor="middle" y="170">
          5
        </text><rect width="15" x="306" style="fill:rgb(200,200,200)" y="150" height="30"></rect><line y1="140" x1="306" style="stroke:rgb(0,0,0);stroke-width:2" x2="306" y2="190"></line><line y1="140" x1="321" style="stroke:rgb(0,0,0);stroke-width:2" x2="321" y2="190"></line><text font-size="20" x="315" text-anchor="middle" y="170">
          8
        </text><rect width="65" x="373" style="fill:rgb(100,100,100)" y="150" height="30"></rect><line y1="140" x1="373" style="stroke:rgb(0,0,0);stroke-width:2" x2="373" y2="190"></line><line y1="140" x1="438" style="stroke:rgb(0,0,0);stroke-width:2" x2="438" y2="190"></line><text font-size="20" x="407" text-anchor="middle" y="170">
          11
        </text><rect width="38" x="438" style="fill:rgb(200,200,200)" y="150" height="30"></rect><line y1="140" x1="438" style="stroke:rgb(0,0,0);stroke-width:2" x2="438" y2="190"></line><line y1="140" x1="476" style="stroke:rgb(0,0,0);stroke-width:2" x2="476" y2="190"></line><text font-size="20" x="459" text-anchor="middle" y="170">
          14
        </text><rect width="29" x="499" style="fill:rgb(100,100,100)" y="150" height="30"></rect><line y1="140" x1="499" style="stroke:rgb(0,0,0);stroke-width:2" x2="499" y2="190"></line><line y1="140" x1="528" style="stroke:rgb(0,0,0);stroke-width:2" x2="528" y2="190"></line><text font-size="20" x="515" text-anchor="middle" y="170">
          17
        </text><rect width="32" x="528" style="fill:rgb(200,200,200)" y="150" height="30"></rect><line y1="140" x1="528" style="stroke:rgb(0,0,0);stroke-width:2" x2="528" y2="190"></line><line y1="140" x1="560" style="stroke:rgb(0,0,0);stroke-width:2" x2="560" y2="190"></line><text font-size="20" x="546" text-anchor="middle" y="170">
          20
        </text><rect width="24" x="560" style="fill:rgb(100,100,100)" y="150" height="30"></rect><line y1="140" x1="560" style="stroke:rgb(0,0,0);stroke-width:2" x2="560" y2="190"></line><line y1="140" x1="584" style="stroke:rgb(0,0,0);stroke-width:2" x2="584" y2="190"></line><text font-size="20" x="574" text-anchor="middle" y="170">
          23
        </text>
</svg>